<?xml version="1.0" encoding="UTF-8" standalone="no"?>
<!DOCTYPE svg PUBLIC "-//W3C//DTD SVG 1.1//EN" "http://www.w3.org/Graphics/SVG/1.1/DTD/svg11.dtd">
<svg width="100%" height="100%" viewBox="0 0 237 237" version="1.1" xmlns="http://www.w3.org/2000/svg" xmlns:xlink="http://www.w3.org/1999/xlink" xml:space="preserve" xmlns:serif="http://www.serif.com/" style="fill-rule:evenodd;clip-rule:evenodd;stroke-linejoin:round;stroke-miterlimit:2;">
    <g transform="matrix(1.04315,0,0,1.04315,-10.1935,0)">
        <circle cx="122.996" cy="113.224" r="113.224" style="fill:rgb(118,159,253);"/>
    </g>
    <g transform="matrix(0.57855,0,0,0.57855,26.2818,31.9886)">
        <g transform="matrix(268.705,0,0,268.705,15.2064,203.933)">
            <path d="M0.3,0.01C0.253,0.01 0.211,0.004 0.174,-0.007C0.137,-0.019 0.101,-0.04 0.067,-0.069C0.058,-0.076 0.052,-0.085 0.047,-0.094C0.042,-0.103 0.04,-0.113 0.04,-0.122C0.04,-0.137 0.045,-0.151 0.056,-0.162C0.067,-0.174 0.081,-0.18 0.098,-0.18C0.111,-0.18 0.122,-0.176 0.132,-0.168C0.157,-0.147 0.182,-0.132 0.207,-0.121C0.232,-0.11 0.263,-0.105 0.3,-0.105C0.325,-0.105 0.347,-0.109 0.368,-0.116C0.389,-0.124 0.405,-0.134 0.418,-0.147C0.431,-0.16 0.437,-0.175 0.437,-0.192C0.437,-0.212 0.431,-0.229 0.419,-0.243C0.407,-0.257 0.389,-0.269 0.364,-0.278C0.339,-0.288 0.308,-0.296 0.27,-0.301C0.234,-0.306 0.202,-0.314 0.175,-0.325C0.148,-0.336 0.125,-0.35 0.106,-0.367C0.088,-0.384 0.074,-0.404 0.065,-0.427C0.056,-0.45 0.051,-0.476 0.051,-0.505C0.051,-0.548 0.062,-0.585 0.084,-0.616C0.107,-0.647 0.137,-0.67 0.175,-0.686C0.213,-0.702 0.255,-0.71 0.301,-0.71C0.344,-0.71 0.384,-0.703 0.421,-0.69C0.458,-0.677 0.489,-0.661 0.512,-0.641C0.531,-0.626 0.541,-0.608 0.541,-0.588C0.541,-0.573 0.535,-0.56 0.524,-0.548C0.513,-0.536 0.499,-0.53 0.484,-0.53C0.474,-0.53 0.465,-0.533 0.457,-0.539C0.446,-0.548 0.432,-0.557 0.414,-0.565C0.396,-0.574 0.377,-0.581 0.357,-0.586C0.337,-0.592 0.318,-0.595 0.301,-0.595C0.272,-0.595 0.248,-0.591 0.228,-0.584C0.209,-0.577 0.194,-0.567 0.184,-0.554C0.174,-0.541 0.169,-0.527 0.169,-0.51C0.169,-0.49 0.175,-0.473 0.186,-0.46C0.198,-0.447 0.215,-0.437 0.237,-0.429C0.259,-0.422 0.285,-0.415 0.316,-0.409C0.356,-0.402 0.391,-0.393 0.421,-0.383C0.452,-0.373 0.477,-0.36 0.497,-0.344C0.517,-0.329 0.532,-0.309 0.542,-0.285C0.552,-0.262 0.557,-0.233 0.557,-0.199C0.557,-0.156 0.545,-0.118 0.521,-0.087C0.497,-0.056 0.465,-0.032 0.426,-0.015C0.387,0.002 0.345,0.01 0.3,0.01Z" style="fill:rgb(1,14,34);fill-rule:nonzero;"/>
        </g>
        <g transform="matrix(268.705,0,0,268.705,175.624,203.933)">
        </g>
    </g>
    <g transform="matrix(0.57855,0,0,0.57855,84.9207,77.0827)">
        <g transform="matrix(268.705,0,0,268.705,15.2064,203.933)">
            <path d="M0.405,0.01C0.354,0.01 0.307,0.001 0.263,-0.018C0.219,-0.037 0.18,-0.062 0.147,-0.095C0.114,-0.128 0.087,-0.167 0.068,-0.21C0.049,-0.253 0.04,-0.3 0.04,-0.35C0.04,-0.4 0.049,-0.447 0.068,-0.49C0.087,-0.533 0.114,-0.571 0.147,-0.604C0.18,-0.637 0.219,-0.663 0.263,-0.682C0.307,-0.701 0.354,-0.71 0.405,-0.71C0.436,-0.71 0.467,-0.707 0.496,-0.7C0.525,-0.693 0.552,-0.683 0.577,-0.67C0.587,-0.665 0.594,-0.657 0.599,-0.648C0.604,-0.639 0.607,-0.63 0.607,-0.621C0.607,-0.605 0.602,-0.591 0.591,-0.578C0.58,-0.565 0.567,-0.559 0.55,-0.559C0.545,-0.559 0.539,-0.56 0.533,-0.561C0.528,-0.562 0.522,-0.564 0.517,-0.567C0.5,-0.574 0.483,-0.58 0.464,-0.584C0.445,-0.588 0.426,-0.59 0.405,-0.59C0.362,-0.59 0.322,-0.579 0.286,-0.557C0.251,-0.536 0.222,-0.507 0.201,-0.47C0.18,-0.434 0.17,-0.394 0.17,-0.35C0.17,-0.307 0.18,-0.267 0.201,-0.23C0.222,-0.193 0.251,-0.164 0.286,-0.142C0.322,-0.121 0.362,-0.11 0.405,-0.11C0.425,-0.11 0.447,-0.112 0.471,-0.116C0.495,-0.12 0.515,-0.125 0.53,-0.132L0.521,-0.102L0.521,-0.273L0.538,-0.258L0.427,-0.258C0.41,-0.258 0.395,-0.264 0.383,-0.275C0.372,-0.286 0.366,-0.301 0.366,-0.318C0.366,-0.335 0.372,-0.35 0.383,-0.361C0.395,-0.372 0.41,-0.378 0.427,-0.378L0.591,-0.378C0.608,-0.378 0.623,-0.372 0.634,-0.36C0.645,-0.349 0.651,-0.334 0.651,-0.317L0.651,-0.105C0.651,-0.092 0.648,-0.081 0.641,-0.072C0.635,-0.063 0.628,-0.056 0.62,-0.051C0.589,-0.032 0.556,-0.017 0.519,-0.006C0.483,0.005 0.445,0.01 0.405,0.01Z" style="fill:rgb(1,14,34);fill-rule:nonzero;"/>
        </g>
        <g transform="matrix(268.705,0,0,268.705,202.225,203.933)">
        </g>
    </g>
</svg>
